<svg width="24" height="20" viewBox="0 0 24 20" fill="none" xmlns="http://www.w3.org/2000/svg">
<path d="M22.3486 6.00706L22.75 5.79635V5.343V3.9C22.75 3.1777 22.4555 2.48894 21.9378 1.98414C21.4207 1.47997 20.7233 1.2 20 1.2H4C3.2767 1.2 2.57931 1.47997 2.06221 1.98414C1.54447 2.48894 1.25 3.1777 1.25 3.9V5.343V5.79635L1.65141 6.00706L11.6514 11.2565L12 11.4395L12.3486 11.2565L22.3486 6.00706ZM2.34855 6.89411L1.25 6.31753V7.5582V15.6C1.25 16.3223 1.54447 17.0111 2.06221 17.5159C2.57931 18.02 3.2767 18.3 4 18.3H20C20.7233 18.3 21.4207 18.02 21.9378 17.5159C22.4555 17.0111 22.75 16.3223 22.75 15.6V7.5582V6.31753L21.6514 6.89411L12.1255 11.8939C12.0879 11.9136 12.0447 11.9245 12 11.9245C11.9553 11.9245 11.9121 11.9136 11.8746 11.8939L2.34855 6.89411ZM0.75 15.6V5.9241V3.9C0.75 3.07078 1.08767 2.27157 1.69515 1.67928C2.30327 1.08637 3.13201 0.75 4 0.75H20C20.868 0.75 21.6967 1.08637 22.3049 1.67928C22.9123 2.27157 23.25 3.07078 23.25 3.9V15.6C23.25 16.4292 22.9123 17.2284 22.3049 17.8207C21.6967 18.4136 20.868 18.75 20 18.75H4C3.13201 18.75 2.30327 18.4136 1.69515 17.8207C1.08767 17.2284 0.75 16.4292 0.75 15.6Z" fill="white" stroke="#7750a1" stroke-width="1.5"/>
</svg>
