<svg width="416" height="195" fill="none" xmlns="http://www.w3.org/2000/svg"><g style="mix-blend-mode:overlay" opacity=".8" fill="#fff"><path d="M-196.049 34.993c20.71 28.52 42.19 58.23 72.38 77.46 28.29 18 62.72 25.21 94.43 12 29.77-12.37 55.2-37.64 88.68-39.72 38.68-2.42 70.92 24.42 97.83 48.69 25.77 23.25 52.91 48.21 88.74 53.12 15.38 2.1 31.21-.07 44.66-8.11 12.19-7.28 21.33-18.46 28.64-30.44 8.1-13.26 14.21-27.59 21-41.52a260.76 260.76 0 0128.64-46.12c22.4-28.66 52-56.12 87.86-66 37-10.2 77.44-2.93 113.28 8.6a312.406 312.406 0 0195.7 50.5 307.056 307.056 0 0120.2 17.13c.25.23.63-.15.38-.38a313.56 313.56 0 00-87.17-56.83c-32.22-14-67.83-23.82-103.13-24.26-18.45-.23-37 2.57-54.08 9.86-15.51 6.64-29.44 16.5-42 27.64-26.42 23.36-46.86 52-62 83.68-13.14 27.44-26.34 60.66-57.08 72.38-36.25 13.8-74.07-7.44-101.25-30.19-27.18-22.75-51.5-50.22-85.54-62.71-15.47-5.68-32.11-7.43-48.2-3.4-15.16 3.81-28.81 11.81-42.11 19.76-14 8.33-28 17.06-43.76 21.62-17.6 5.11-36.28 3.88-53.62-1.65-36.25-11.57-63-39.76-85.53-69.18-5.59-7.3-11-14.75-16.41-22.19-.2-.28-.66 0-.46.27l-.08-.01z" opacity=".07"/><path d="M-197.689 36.222c19.64 27.14 39.89 55.34 67.94 74.42 26.16 17.8 58.78 26.72 89.63 16.81 29.77-9.55 54.77-31.91 86.52-35.57 37.24-4.3 70.61 18.23 98.13 40.47 25.77 20.83 51.52 43 85.34 48.51 15.39 2.5 31.47 1.43 45.95-4.6 13.69-5.7 24.85-15.69 33.87-27.29 10.16-13.07 17.79-27.85 26.18-42.05a255.72 255.72 0 0133.63-45.09c24.45-26.05 54.45-50.39 89.36-60.19 35.43-9.94 74.07-6.11 109.43 2.21a293.404 293.404 0 0192.78 39.21 272.392 272.392 0 0120.82 15c.28.22.68-.18.4-.4a284.48 284.48 0 00-83.74-45.6c-32.41-11.19-67.58-17.84-101.94-16.57-17.56.65-35.09 3.71-51.45 10.24-15.09 6-29 14.75-41.8 24.63a275.21 275.21 0 00-70.49 80.63c-16.82 29-34.21 60.88-69.77 68.74-35.41 7.83-68.89-8.91-96.17-30-26.67-20.67-51.62-44.67-84.67-54.67-15.69-4.77-32.12-5.61-48-1.4-14.57 3.87-27.92 11.1-41.17 18.11-13.94 7.38-28.19 14.81-43.8 17.89-16.75 3.31-34.15 1.06-50.1-4.72-34.24-12.39-59.38-39.61-80.84-67.88-5.29-7-10.42-14.05-15.55-21.14-.21-.29-.7 0-.49.28v.02z" opacity=".13"/><path d="M-199.309 37.463c18.84 26.14 38.2 53.24 64.76 72.14 24.72 17.58 55.77 27.28 85.82 19.73 29.83-7.49 55.41-27.57 86.5-30.76 36.35-3.74 69.76 16 98.08 36.4 26 18.73 51.54 37.8 84.34 41.5a99.144 99.144 0 0047.15-5.76c13.641-5.35 25.3-14.22 35.16-25 10.72-11.69 19.29-25.1 28.5-38a259.99 259.99 0 0135.95-40.65c26.43-24.13 57-46.92 91.651-57.44 34.32-10.41 71.609-9.74 106.809-4.74 32.261 4.57 64 13.92 92.87 29.15 6.711 3.53 13.23 7.4 19.58 11.54.32.21.61-.3.3-.51-25.909-16.92-54.89-28.58-85-35.6-32.429-7.57-66.83-10.73-100-7.26a176.816 176.816 0 00-49.16 12c-15.49 6.4-29.89 15.18-43.5 24.91-28.55 20.35-53.249 44.44-73.399 73.15-9.23 13.15-18.191 26.65-29.731 37.94a90.225 90.225 0 01-43.25 23.95 105.322 105.322 0 01-50.33-1.38c-16.27-4.34-30.94-12.5-44.77-21.92-27.61-18.79-53.31-40.79-86.27-49.66a95.416 95.416 0 00-46.82-1.2c-14.4 3.37-27.81 9.76-41.18 15.9-13.77 6.32-27.87 12.56-43 14.73-16.58 2.39-33.58-.52-49-6.71-32.56-13-56.44-39.6-77.08-67-4.9-6.51-9.67-13.12-14.44-19.74-.22-.3-.73 0-.51.3l-.03-.01z" opacity=".18"/><path d="M-200.929 38.703c18.32 25.52 37.12 52 62.79 70.69 24 17.51 54 27.21 83.58 21.09 30.19-6.24 56.95-24.29 88.34-25.55 35.18-1.42 67.53 16.21 96.26 34.57 13.59 8.68 27.16 17.64 42.1 23.88a118.28 118.28 0 0043.48 9.05 114.375 114.375 0 0082.51-32.83c11.23-10.9 20.791-23.33 31.221-35a276.465 276.465 0 0138.669-35.38c27.49-20.87 57.23-40.94 90.3-51.71 32.76-10.68 68.06-12.79 102.3-11.36 31.49 1.32 63.131 6.45 92.671 17.74a220.052 220.052 0 0120.459 9.05c.36.18.67-.35.31-.53-25.83-13-54-20.57-82.62-24.28-32.22-4.17-65.64-4.36-97.8.53a211.33 211.33 0 00-50 13.64c-14.88 6.23-28.94 14.22-42.48 22.93-28.57 18.37-55.229 39.14-77.5 64.9-10 11.52-19.519 23.46-30.94 33.6a108.579 108.579 0 01-42.35 23.49 119.458 119.458 0 01-50.87 3.17c-16.25-2.5-31.31-8.71-45.52-16.83-14.21-8.12-27.56-17.63-41.75-25.78-13.91-8-28.64-14.88-44.14-19.17-15.5-4.29-31.33-5.66-47.12-3-15 2.54-29.16 8.26-43.27 13.75-14.11 5.49-28.32 10.76-43.4 12.1-15.93 1.41-32-1.91-46.6-8.13-31-13.14-53.8-38.74-73.59-65.12-4.92-6.56-9.71-13.22-14.5-19.89-.23-.32-.77 0-.54.31v.07z" opacity=".24"/><path d="M-202.539 39.943c18.07 25.29 36.62 51.58 62 70.13 23.34 17.06 51.87 26.32 80.76 21.59 30.45-5 58.28-20.57 89.75-20.07 34.46.54 66 16.44 95.47 32.7 13.69 7.55 27.59 15 42.69 19.38a124.775 124.775 0 0043.85 4.1c30.86-2.38 59.13-14.47 82.58-34.48 11.79-10.05 22.47-21.31 34.15-31.48 12.73-11.08 26.57-20.75 40.8-29.75 28.71-18.19 58.281-36.4 90.69-47.24 31.86-10.67 65.74-14.92 99.17-16.6 30.59-1.53 61.7-.4 91.58 6.79a209.761 209.761 0 0118.781 5.46c.4.14.57-.49.169-.62-26.38-9-54.35-12.39-82.14-12.81a444.076 444.076 0 00-95.13 8.5c-32.51 6.64-62.12 19.5-90.74 36.06-28.15 16.29-56.14 33.51-80.18 55.6-11.08 10.18-21.54 21.07-33.39 30.38a135.524 135.524 0 01-43 23c-31.92 10.16-65.7 9.23-96.26-4.76-14.69-6.72-28.44-15.25-42.82-22.58-13.9-7.08-28.4-13.23-43.49-17.32-15.56-4.23-31.68-6.09-47.74-4.13-14.51 1.76-28.44 6.2-42.31 10.63-14.28 4.56-28.77 9.06-43.84 9.88-15.67.86-31.24-2.74-45.52-9.06-30-13.25-52-38.41-71.24-64.15-4.79-6.42-9.45-12.93-14.1-19.45-.24-.34-.81 0-.56.33l.02-.03z" opacity=".3"/><path d="M-204.159 41.183c17.34 24.38 35.11 50.16 59.43 68.21 22.26 16.54 52.13 26.66 80 24.43 29.53-2.37 56.68-16.33 86.73-15.5 34.12 1 65.85 14.91 96.32 28.95 13.84 6.38 27.95 12.5 43 15.27 14.31 2.63 29 2.42 43.41.43a189.84 189.84 0 0086-35.11c12.25-8.91 23.92-18.57 36.5-27 13.42-9 27.62-16.75 41.9-24.3 29.88-15.81 59.53-32.74 91.52-44 30.63-10.78 62.78-17 94.83-21.71 30-4.45 60.57-7.5 90.88-5.2 6.44.493 12.847 1.266 19.22 2.32.42.07.61-.59.18-.66-26.66-4.44-53.94-3.56-80.73-.86a640.54 640.54 0 00-92.68 15.92c-31.85 8.05-61.35 20.89-90.38 36.06-28.49 14.88-57.77 29.11-83.89 48-12 8.65-23.31 18.14-35.57 26.4a175.01 175.01 0 01-42.87 21.15c-31 10.33-64.63 14-96 3.15-15.37-5.3-29.79-12.92-44.67-19.39a275.029 275.029 0 00-43.8-15.28c-15.45-3.81-31.47-5.82-47.37-4.31-14.32 1.35-28.15 5.33-42 9-14 3.74-28.44 7.08-43.09 6.13a130.084 130.084 0 01-43.73-10.87c-29.33-13-50.44-37.67-69.13-62.91-4.57-6.16-9-12.41-13.46-18.65-.25-.36-.84 0-.58.34l.03-.01z" opacity=".36"/><path d="M-205.779 42.422c17.18 24.27 34.73 49.54 58.64 67.77 22.94 17.51 50.22 26.51 79.09 24.35 14.31-1.07 28.37-4.1 42.51-6.4 16.36-2.66 32.78-4.07 49.32-2.38 32.74 3.33 62.89 15.7 93.62 26.53 14.33 5.06 29 8.85 44.22 9.23 14.66.35 29.3-1.79 43.54-5.11 30.12-7 57.83-18.82 84.21-34.81 12.95-7.85 25.81-15.88 39.52-22.37 14.48-6.86 29.17-13.15 43.82-19.64 31-13.75 61.171-29.62 93.2-41 30.25-10.79 61.53-18.59 92.73-26.11 28.211-6.79 56.76-13.33 85.711-16a249.695 249.695 0 0117.289-1 .362.362 0 00.301-.355.362.362 0 00-.301-.355c-25.65.61-51.08 5.36-76.08 10.8-30.82 6.71-61.6 14.25-91.829 23.25-30.94 9.21-60.211 21.74-89.371 35.48-28.85 13.59-58.92 25-87 40.08-26.41 14.09-50.41 31.47-78.85 41.43-29.88 10.45-62.82 19-94.58 13.19-15.61-2.87-30.41-8.85-45.22-14.38a406.715 406.715 0 00-44.67-14.17c-14.92-3.68-30.28-6.23-45.67-6.21-14.92 0-29.66 2.39-44.31 5-14.65 2.61-29.45 5.27-44.42 5a105.393 105.393 0 01-43.69-10.72c-28.39-13.6-49.21-37.75-67.57-62.63-4.59-6.22-9.06-12.52-13.52-18.83-.26-.37-.87 0-.61.36h-.03z" opacity=".42"/><path d="M-207.399 43.663c17.23 24.46 34.86 50 59 68.22a126.221 126.221 0 0038.35 19.87c13.38 4.15 27.31 5.22 41.25 4.7 15.14-.57 30.14-2.8 45.23-4a223.308 223.308 0 0150 1.4c16 2.3 31.64 6.06 47.2 10.19 15.05 4 29.55 9.94 44.7 13.51a80.017 80.017 0 0020.62 2.41c6.63-.21 13.29-1.47 19.84-2.48 15-2.31 30-5.18 44.77-8.89a355.694 355.694 0 0047.35-15.25c12.9-5.24 25.42-11.33 38-17.3 28.57-13.58 58.84-21.83 88.34-32.95 31.18-11.76 61.15-26.45 92.36-38.11 30.3-11.32 61.21-20.95 91.8-31.45 26.53-9.12 52.93-18.85 80-26.46 5.4-1.533 10.84-2.933 16.32-4.2.46-.11.26-.82-.2-.71-24.69 5.7-48.67 14.22-72.59 22.48-29.62 10.23-59.4 20-89 30.19-30.79 10.58-60.51 23.29-90.42 36.07-15.15 6.46-30.45 12.63-46.12 17.75-14.16 4.63-28.4 9.22-42.34 14.49-27.92 10.55-53.79 25.71-82.07 35.44-28.73 9.87-58.63 16-88.72 20-16.2 2.15-31.57-2.35-46.82-7.4-14.56-4.82-29.22-9-44.17-12.51-15.33-3.58-30.92-6.44-46.66-7.46-15.54-1-31.07.27-46.53 1.88-14.59 1.52-29.23 3.25-43.93 2.63a112.022 112.022 0 01-43.89-11c-28.34-13.6-49-37.56-67.32-62.45-4.61-6.28-9.1-12.65-13.58-19-.27-.38-.91 0-.64.38l-.13.01z" opacity=".48"/><path d="M-209.049 44.903c17.12 24.39 34.59 49.95 58.61 68.16a130.13 130.13 0 0036.71 19.65c13.19 4.45 27.09 6.09 41 6.44 15.27.39 30.54-.7 45.8-1 16.757-.31 33.511.73 50.1 3.11 15.36 2.2 30.59 5.23 45.81 8.23 15.42 3 30.79 6.75 46.47 8.21 30 2.8 58.61-6.67 86.7-15.93 15.6-5.14 31.29-10 46.75-15.55 13.55-4.88 26.95-10.18 40.61-14.77 30.07-10.09 61.77-14.17 91.94-24 31.84-10.34 62.34-24.5 93.44-36.81 29.62-11.73 59.39-23.05 88.39-36.28 25.35-11.56 50-24.49 75-36.75a691.41 691.41 0 0115.37-7.32c.45-.2.06-.86-.39-.66-22.92 10.51-45.16 22.43-67.86 33.43-28.63 13.86-57.91 26.06-87.52 37.68-30.8 12.08-61.2 25.2-92.06 37.13a390.242 390.242 0 01-45.45 14.85c-14.73 3.7-29.61 6.77-44.38 10.31-29.08 7-56.42 19.08-84.76 28.41-15 4.94-30.06 9.91-45.16 14.65-13.95 4.39-28.11 8.41-42.64 10.32-31.37 4.11-62.83-5.68-93.42-11.45-15.07-2.85-30.23-5.37-45.52-6.74-15.62-1.39-31.27-1-46.92-.44-29.55 1.08-58.81 1.33-86-12.06-28.1-13.85-48.56-37.66-66.73-62.66-4.48-6.14-8.84-12.36-13.2-18.58-.28-.4-.94 0-.66.39l-.03.03z" opacity=".53"/><path d="M-210.639 46.133c17 24.43 34.37 50 58.3 68.22a134.986 134.986 0 0037.16 20.23c13.13 4.59 27.06 6.75 40.88 7.9 15.27 1.26 30.61 1.27 45.92 1.81 16.63.59 33.14 2.2 49.64 4.33 15.67 2 31.31 4.26 47 6.22 16 2 32.26 4 48.46 2.9 29.09-2 56.42-14.59 83.69-23.86 15.44-5.25 31.15-9.73 46.77-14.38 13.91-4.14 27.9-8.2 42.14-11.07 15.81-3.18 31.87-4.3 47.8-6.64 16.23-2.38 32.24-4.83 48.06-9.29 31.95-9 62.56-22.65 93-35.64 29.91-12.75 59.5-26.21 87.63-42.58 24.15-14.06 47-30.08 69.64-46.41 4.667-3.393 9.37-6.766 14.11-10.12.41-.29 0-1-.4-.68-20.85 14.76-41.33 30-62.87 43.77a640.066 640.066 0 01-82.8 44.12c-30.54 13.72-61.54 27.18-93.1 38.55a320.98 320.98 0 01-46.3 13.27c-16 3.18-32.4 5.09-48.63 6.86-29.41 3.2-57.45 11.75-85.67 20.25-15.38 4.64-30.63 9.47-45.76 14.9-13.39 4.82-26.76 9.8-40.53 13.46a145.677 145.677 0 01-44.73 4.8c-16.39-.78-32.75-3.19-49-5.38-15.54-2.09-31.07-4.35-46.67-6-15.6-1.65-31.35-2.21-47.08-2.61-29.55-.77-59.48-2.19-86.36-15.8-27.85-14.1-48.12-37.62-66.17-62.49-4.56-6.28-9-12.66-13.44-19-.29-.42-1 0-.69.4v-.04z" opacity=".59"/><path d="M-212.249 47.373c17.51 25.32 35.37 51.69 60.35 70.24 23.48 17.45 50.85 25.81 79.57 29.56 15.75 2.06 31.61 3 47.44 4.24 16.7 1.3 33.35 3.27 50 4.83 30.61 2.87 63.32 6.33 93.53-1 28.79-7 55.2-21.52 83.43-30.33 30.51-9.53 62.68-17.23 94.69-18.76 16.2-.78 32.38-.62 48.59-1.61a243.092 243.092 0 0047.64-7.56c31.86-8.43 62.53-21.88 92.32-35.82 29.23-13.68 57.57-29.19 83.71-48.2 22.62-16.44 43.32-35.22 63.29-54.75 4.42-4.33 8.82-8.69 13.23-13 .38-.37-.21-1-.58-.58-18.76 18.47-37.52 36.92-58 53.53a453.358 453.358 0 01-79 51c-29.51 15.15-60.19 28.87-91.54 39.75a283.623 283.623 0 01-47.44 12.4c-15.92 2.58-32.44 3.43-48.57 3.65-15.7.22-31.23.35-46.82 2.54a414.487 414.487 0 00-43.44 8.85 430.244 430.244 0 00-45.84 13.82c-13.69 5.12-27.08 11-40.74 16.2-13.66 5.2-27.68 9.46-42.32 11.06-15.92 1.74-32 1-47.94.19-31.75-1.68-63.35-5.83-95.05-8.26-30-2.3-60.89-5.33-88.17-19-28.71-14.55-49.57-38.44-68.14-64.16-4.58-6.35-9-12.8-13.5-19.24-.3-.44-1 0-.71.41h.01z" opacity=".65"/><path d="M-213.869 48.612c17.89 26 36.11 52.901 61.77 72.001 24.16 18 52.77 27.46 82.17 32.58 15.39 2.68 30.94 4.22 46.47 5.81 16.82 1.72 33.67 3.21 50.57 3.71 31.11.93 63-.69 92.22-12.13 27.84-10.89 53.69-26.08 82.78-33.77 32.06-8.47 64.83-12.82 98-10.42 16.37 1.18 32.54 2.43 49 2.5a202.35 202.35 0 0049.51-6.39c32.53-8.09 63.89-21.94 93.53-37.42 28-14.65 54.58-32 78.32-52.91 21.92-19.35 41.13-41.39 59.21-64.31 4-5.054 7.954-10.127 11.86-15.22.33-.43-.27-1-.6-.61-16.66 21.54-33.59 42.89-52.78 62.25a368.797 368.797 0 01-74.21 57.62 494.238 494.238 0 01-91.37 42.52 254.507 254.507 0 01-49.18 12c-16.63 2.18-33.57 1.85-50.28 1-16.27-.84-32.33-3-48.66-2.63a281.21 281.21 0 00-44.17 4.81c-16.05 2.95-32.05 6.75-47.4 12.34-13.21 4.81-25.94 10.789-38.67 16.73-12.94 6.05-26 12.15-39.77 16.09-15.64 4.48-31.9 6.18-48.11 6.87-32.46 1.38-64.81-1.72-97-5.28-30.39-3.36-61.39-8.65-88.84-22.69-29.53-15.1-51-39.41-70.06-66-4.61-6.43-9.09-13-13.58-19.48-.31-.45-1 0-.73.43z" opacity=".71"/><path d="M-215.489 49.853c18.45 27.06 37.21 54.53 63.7 74.42 24.44 18.35 53.61 29.59 83.37 35.79 32.13 6.71 66 9.76 98.74 7.63a258.549 258.549 0 0047.84-7.26c14.36-3.7 27.87-9.4 41.05-16.15 13.18-6.75 25.84-14 39.15-20.24a207.246 207.246 0 0146.59-15.44c33.94-7 67.8-6.32 101.77.07 32.9 6.19 66.25 7.32 98.91-.74s64.29-22.51 93.27-39.63a332.378 332.378 0 0074.87-59.64c20.17-21.7 37.15-46 52.87-71.08 3.67-5.84 7.27-11.72 10.87-17.6.3-.49-.47-.93-.76-.45-15 24.62-30.47 49.06-48.75 71.43a327.48 327.48 0 01-70.25 64.4 384.5 384.5 0 01-89.73 45 231.077 231.077 0 01-51.07 11.76c-16.86 1.74-33.6.53-50.39-1.32-16-1.77-31.66-5.53-47.67-7.16a247.604 247.604 0 00-94.79 9.32c-14 4.4-27.33 10.63-40.34 17.4-12.24 6.38-24.26 13.22-36.83 19a186.29 186.29 0 01-46 13.91c-33.18 5.75-66.7 4.8-100 .7-31.32-3.85-62.28-11.41-90.25-26.38-29.84-16-51.85-40.52-71.24-67.75-4.85-6.78-9.49-13.6-14.17-20.44-.32-.46-1.08 0-.76.45z" opacity=".77"/><path d="M-217.109 51.063c19 28.08 38.31 56.19 65.38 77.2 24.56 19.06 53.63 32.31 83.87 39.31 32.31 7.47 66.34 9.15 99.08 3.6a225.279 225.279 0 0048.19-13.53c13.65-5.62 26.34-13.09 38.93-20.73 12.59-7.64 25.33-15.44 38.83-21.6a172.93 172.93 0 0150.78-13.92 215.297 215.297 0 0151.31-.17c18.17 2.09 35.46 7.15 53.2 11.29 16.53 3.86 33.87 6.81 50.86 7.13a188.442 188.442 0 0051-6.43c32.52-8.49 63.54-23.73 91.36-42.46a301.989 301.989 0 0070.36-65.8c18.64-24.12 33.7-50.7 47.51-77.81 3.334-6.54 6.617-13.11 9.85-19.71.26-.52-.53-1-.79-.46-13.2 26.72-26.77 53.32-43.4 78.11-17.86 26.62-39.24 50.65-64.4 70.58a320.93 320.93 0 01-88.08 49.54 219.137 219.137 0 01-50.09 12.34c-18.62 2.17-36.68.72-55.11-2.27-16.94-2.75-33.26-7.81-50-11.31a230.494 230.494 0 00-48.21-5.1c-32 .14-62.53 7.47-90.62 22.74-12.69 6.89-24.8 14.78-37.3 22a212.461 212.461 0 01-42.87 19.21c-32.69 10.25-67.22 12.89-101.18 8.85-32.25-3.84-63.24-13.33-91.33-29.79a198.047 198.047 0 01-39.47-30.38c-12.22-12.15-22.66-26-32.57-40-4.86-6.89-9.58-13.86-14.3-20.84-.33-.49-1.12 0-.79.46v-.05z" opacity=".83"/><path d="M-218.729 52.333c19.68 29.3 39.68 58.329 67.23 80.859 24.52 20.05 53.27 35.2 84.18 42.46a196.988 196.988 0 00101.35-3.18 220.635 220.635 0 0045.52-19.33c13.54-7.65 26.1-16.84 39-25.48 12.9-8.64 26.33-16.82 40.91-22.46 16.82-6.5 34.93-9.37 52.91-9.75a212.806 212.806 0 0155.67 6.61c17.2 4.27 33.63 11 50.75 15.44 16.72 4.36 33.79 8 51.12 8.29a181.08 181.08 0 0051.19-6.73c32.63-8.94 63.31-25.32 90.11-45.82a288.263 288.263 0 0066.17-71.88c17.36-26.65 30.8-55.59 43.06-84.87 3.027-7.22 6.004-14.46 8.93-21.72.23-.57-.68-.81-.91-.26-24.34 59.97-51.51 119.63-100.51 163.67a279.44 279.44 0 01-86.16 53.12c-33.91 13-69.44 16.95-105.06 9.36-33.67-7.17-65.23-21.51-99.73-25.11-32.75-3.42-65.89 1.16-95.11 16.75-26.77 14.28-49.74 34.56-77.3 47.52-31.89 15-67.37 22.43-102.59 19.5a200.781 200.781 0 01-92.48-32c-29.67-19.2-52.52-44.92-72.57-73.66-5-7.21-9.94-14.51-14.84-21.81-.33-.5-1.15 0-.81.48h-.03z" opacity=".88"/><path d="M-220.349 53.573c20.3 30.49 40.9 60.72 68.54 85.08 24 21.18 52.43 38 83.89 45.08 34.91 7.84 70.55 2.47 103.1-11.69a244.475 244.475 0 0044.77-25.73c12.4-8.9 24.2-18.61 36.68-27.4 13-9.16 26.87-17.23 42.08-22.11 17.88-5.75 37.07-7.13 55.73-5.74 18.84 1.4 37.31 5.8 55.16 11.87 17.59 6 34.39 14 52.19 19.39 17.58 5.32 35.28 9.53 53.73 9.9a173.918 173.918 0 0052.23-7.24c32.25-9.45 62-26.91 87.42-48.73 25.42-21.82 46.32-48.61 62.65-78s28.37-60.74 39.36-92.36c2.74-7.87 5.41-15.77 8.08-23.66.2-.6-.74-.85-.94-.26-21.37 63.57-44.82 128.51-92.62 177.49-48.44 49.6-120.67 84.79-190.84 67.14-17.8-4.48-34.65-10.65-51.66-17.43-16.59-6.62-33.57-12.38-51.12-15.84-32.69-6.45-67.33-5.17-97.54 9.89-27.3 13.61-49.24 35.5-75 51.61-30.47 19.1-65.65 32.18-102 31.69-34.25-.47-66.9-13.14-94.7-32.71-29.55-20.82-52.65-48.34-73-77.9-5.19-7.55-10.27-15.19-15.35-22.85-.34-.52-1.18 0-.84.49v.02z" opacity=".94"/><path d="M-221.969 54.803c38.08 57.89 84 126.49 158.26 137.92 34.5 5.32 68.75-5.25 98.48-22.37a300.804 300.804 0 0042.17-30c13.15-10.94 25.86-22.5 40-32.22 14.14-9.72 29.47-17.13 46.28-20.38 20.5-4 41.74-2.6 62 1.84 20 4.38 39.2 11.81 57.77 20.33 17.3 7.94 34.27 15.48 52.44 21.27a161.593 161.593 0 0095.71.65c31.19-9.32 59.53-26.93 83.42-48.84 53.75-49.31 79.11-118.23 99-186.6 2.59-8.9 5.11-17.83 7.63-26.75a.514.514 0 00-.365-.635.515.515 0 00-.635.365c-19.47 69-40.11 141.05-89.19 195.54-44.15 49-110.21 83.53-177.43 70-18.13-3.64-36.18-10.2-53-17.81-17.4-7.88-34.41-16.26-52.59-22.28-34-11.25-72.5-15.75-106.36-1.65-30.12 12.56-52.64 37.12-78.14 56.6-28.19 21.53-61.13 39.45-97 42.77-35.67 3.3-69.74-10-98-31-30.2-22.52-53.2-53-74.15-83.94-5.17-7.71-10.3-15.55-15.38-23.31-.35-.54-1.22 0-.87.5h-.05z" opacity=".8"/></g></svg>