<svg width="19" height="19" viewBox="0 0 19 19" fill="#7750a1" xmlns="http://www.w3.org/2000/svg">
<path fill-rule="evenodd" clip-rule="evenodd" d="M13.6152 0.920898H5.84275C3.15989 0.920898 0.984985 3.0958 0.984985 5.77867V13.5511C0.984985 16.2339 3.15989 18.4089 5.84275 18.4089H13.6152C16.298 18.4089 18.4729 16.2339 18.4729 13.5511V5.77867C18.4729 3.0958 16.298 0.920898 13.6152 0.920898ZM16.7727 13.5511C16.7674 15.2927 15.3568 16.7033 13.6152 16.7086H5.84275C4.1011 16.7033 2.69054 15.2927 2.6852 13.5511V5.77867C2.69054 4.03701 4.1011 2.62645 5.84275 2.62112H13.6152C15.3568 2.62645 16.7674 4.03701 16.7727 5.77867V13.5511ZM14.3438 6.02155C14.8804 6.02155 15.3154 5.58657 15.3154 5.05C15.3154 4.51343 14.8804 4.07845 14.3438 4.07845C13.8073 4.07845 13.3723 4.51343 13.3723 5.05C13.3723 5.58657 13.8073 6.02155 14.3438 6.02155ZM9.72897 5.29289C7.31438 5.29289 5.35698 7.2503 5.35698 9.66488C5.35698 12.0795 7.31438 14.0369 9.72897 14.0369C12.1436 14.0369 14.101 12.0795 14.101 9.66488C14.1036 8.50455 13.6437 7.39103 12.8233 6.57056C12.0028 5.75009 10.8893 5.29031 9.72897 5.29289ZM7.0572 9.66488C7.0572 11.1405 8.25337 12.3367 9.72897 12.3367C11.2046 12.3367 12.4007 11.1405 12.4007 9.66488C12.4007 8.18928 11.2046 6.99311 9.72897 6.99311C8.25337 6.99311 7.0572 8.18928 7.0572 9.66488Z" fill="#7750a1"/>
</svg>
